<mxfile host="app.diagrams.net" modified="2024-07-03T21:26:57.168Z" agent="Mozilla/5.0 (Windows NT 10.0; Win64; x64) AppleWebKit/537.36 (KHTML, like Gecko) Chrome/123.0.0.0 Safari/537.36 OPR/109.0.0.0" etag="nWNpfYQwAmidsAZurVx4" version="24.6.4" type="device">
  <diagram name="PÃ¡gina-1" id="kTULdreiGxjbtmzYMMeo">
    <mxGraphModel dx="1536" dy="672" grid="1" gridSize="10" guides="1" tooltips="1" connect="1" arrows="1" fold="1" page="1" pageScale="1" pageWidth="827" pageHeight="1169" math="0" shadow="0">
      <root>
        <mxCell id="0" />
        <mxCell id="1" parent="0" />
        <mxCell id="YwI35glb4WTkXIQjEgCE-1" value="Entidades&lt;div&gt;&lt;br&gt;&lt;/div&gt;&lt;div&gt;Instructor&lt;/div&gt;&lt;div&gt;guia&lt;/div&gt;&lt;div&gt;momentos&lt;/div&gt;&lt;div&gt;&lt;span style=&quot;background-color: initial;&quot;&gt;aprendiz&lt;/span&gt;&lt;br&gt;&lt;/div&gt;&lt;div&gt;administrador&lt;/div&gt;&lt;div&gt;aplicativo&lt;/div&gt;&lt;div&gt;&lt;br&gt;&lt;/div&gt;" style="rounded=0;whiteSpace=wrap;html=1;" parent="1" vertex="1">
          <mxGeometry x="590" y="326.75" width="80" height="140" as="geometry" />
        </mxCell>
        <mxCell id="YwI35glb4WTkXIQjEgCE-2" value="instructor" style="rounded=0;whiteSpace=wrap;html=1;" parent="1" vertex="1">
          <mxGeometry x="180" y="400" width="70" height="30" as="geometry" />
        </mxCell>
        <mxCell id="YwI35glb4WTkXIQjEgCE-3" value="&lt;u&gt;idInstructor&lt;/u&gt;" style="ellipse;whiteSpace=wrap;html=1;" parent="1" vertex="1">
          <mxGeometry x="110" y="340" width="70" height="30" as="geometry" />
        </mxCell>
        <mxCell id="YwI35glb4WTkXIQjEgCE-4" value="" style="endArrow=none;html=1;rounded=0;entryX=0;entryY=0;entryDx=0;entryDy=0;exitX=1;exitY=0.5;exitDx=0;exitDy=0;" parent="1" source="YwI35glb4WTkXIQjEgCE-3" target="YwI35glb4WTkXIQjEgCE-2" edge="1">
          <mxGeometry width="50" height="50" relative="1" as="geometry">
            <mxPoint x="140" y="440" as="sourcePoint" />
            <mxPoint x="190" y="390" as="targetPoint" />
          </mxGeometry>
        </mxCell>
        <mxCell id="YwI35glb4WTkXIQjEgCE-5" value="nombre" style="ellipse;whiteSpace=wrap;html=1;" parent="1" vertex="1">
          <mxGeometry x="100" y="370" width="60" height="30" as="geometry" />
        </mxCell>
        <mxCell id="YwI35glb4WTkXIQjEgCE-6" value="&lt;span style=&quot;color: rgb(0, 0, 0); font-family: Helvetica; font-size: 12px; font-style: normal; font-variant-ligatures: normal; font-variant-caps: normal; font-weight: 400; letter-spacing: normal; orphans: 2; text-align: center; text-indent: 0px; text-transform: none; widows: 2; word-spacing: 0px; -webkit-text-stroke-width: 0px; white-space: normal; background-color: rgb(251, 251, 251); text-decoration-thickness: initial; text-decoration-style: initial; text-decoration-color: initial; display: inline !important; float: none;&quot;&gt;especialidad&lt;/span&gt;" style="ellipse;whiteSpace=wrap;html=1;" parent="1" vertex="1">
          <mxGeometry x="80" y="420" width="70" height="40" as="geometry" />
        </mxCell>
        <mxCell id="YwI35glb4WTkXIQjEgCE-7" value="experiencia" style="ellipse;whiteSpace=wrap;html=1;" parent="1" vertex="1">
          <mxGeometry x="160" y="500" width="80" height="30" as="geometry" />
        </mxCell>
        <mxCell id="YwI35glb4WTkXIQjEgCE-8" value="tel" style="ellipse;whiteSpace=wrap;html=1;" parent="1" vertex="1">
          <mxGeometry x="120" y="460" width="50" height="30" as="geometry" />
        </mxCell>
        <mxCell id="YwI35glb4WTkXIQjEgCE-9" value="email" style="ellipse;whiteSpace=wrap;html=1;" parent="1" vertex="1">
          <mxGeometry x="190" y="460" width="50" height="30" as="geometry" />
        </mxCell>
        <mxCell id="YwI35glb4WTkXIQjEgCE-10" value="edad" style="ellipse;whiteSpace=wrap;html=1;" parent="1" vertex="1">
          <mxGeometry x="190" y="350" width="50" height="20" as="geometry" />
        </mxCell>
        <mxCell id="YwI35glb4WTkXIQjEgCE-12" value="" style="endArrow=none;html=1;rounded=0;exitX=0.159;exitY=-0.002;exitDx=0;exitDy=0;exitPerimeter=0;entryX=0.5;entryY=1;entryDx=0;entryDy=0;" parent="1" source="YwI35glb4WTkXIQjEgCE-2" target="YwI35glb4WTkXIQjEgCE-10" edge="1">
          <mxGeometry width="50" height="50" relative="1" as="geometry">
            <mxPoint x="200" y="390" as="sourcePoint" />
            <mxPoint x="250" y="340" as="targetPoint" />
          </mxGeometry>
        </mxCell>
        <mxCell id="YwI35glb4WTkXIQjEgCE-13" value="" style="endArrow=none;html=1;rounded=0;exitX=1;exitY=0.5;exitDx=0;exitDy=0;entryX=0;entryY=0.25;entryDx=0;entryDy=0;" parent="1" source="YwI35glb4WTkXIQjEgCE-5" target="YwI35glb4WTkXIQjEgCE-2" edge="1">
          <mxGeometry width="50" height="50" relative="1" as="geometry">
            <mxPoint x="213" y="400" as="sourcePoint" />
            <mxPoint x="225" y="380" as="targetPoint" />
          </mxGeometry>
        </mxCell>
        <mxCell id="YwI35glb4WTkXIQjEgCE-14" value="" style="endArrow=none;html=1;rounded=0;exitX=1;exitY=0.5;exitDx=0;exitDy=0;entryX=0;entryY=0.5;entryDx=0;entryDy=0;" parent="1" source="YwI35glb4WTkXIQjEgCE-6" target="YwI35glb4WTkXIQjEgCE-2" edge="1">
          <mxGeometry width="50" height="50" relative="1" as="geometry">
            <mxPoint x="165" y="421" as="sourcePoint" />
            <mxPoint x="195" y="439" as="targetPoint" />
          </mxGeometry>
        </mxCell>
        <mxCell id="YwI35glb4WTkXIQjEgCE-15" value="" style="endArrow=none;html=1;rounded=0;exitX=1;exitY=0;exitDx=0;exitDy=0;entryX=0;entryY=0.75;entryDx=0;entryDy=0;" parent="1" source="YwI35glb4WTkXIQjEgCE-8" target="YwI35glb4WTkXIQjEgCE-2" edge="1">
          <mxGeometry width="50" height="50" relative="1" as="geometry">
            <mxPoint x="380" y="430" as="sourcePoint" />
            <mxPoint x="430" y="380" as="targetPoint" />
          </mxGeometry>
        </mxCell>
        <mxCell id="YwI35glb4WTkXIQjEgCE-16" value="" style="endArrow=none;html=1;rounded=0;exitX=0;exitY=0;exitDx=0;exitDy=0;entryX=0;entryY=1;entryDx=0;entryDy=0;" parent="1" source="YwI35glb4WTkXIQjEgCE-7" target="YwI35glb4WTkXIQjEgCE-2" edge="1">
          <mxGeometry width="50" height="50" relative="1" as="geometry">
            <mxPoint x="380" y="430" as="sourcePoint" />
            <mxPoint x="430" y="380" as="targetPoint" />
          </mxGeometry>
        </mxCell>
        <mxCell id="YwI35glb4WTkXIQjEgCE-17" value="" style="endArrow=none;html=1;rounded=0;exitX=0;exitY=0;exitDx=0;exitDy=0;entryX=0.25;entryY=1;entryDx=0;entryDy=0;" parent="1" source="YwI35glb4WTkXIQjEgCE-9" target="YwI35glb4WTkXIQjEgCE-2" edge="1">
          <mxGeometry width="50" height="50" relative="1" as="geometry">
            <mxPoint x="380" y="430" as="sourcePoint" />
            <mxPoint x="430" y="380" as="targetPoint" />
          </mxGeometry>
        </mxCell>
        <mxCell id="YwI35glb4WTkXIQjEgCE-21" value="" style="endArrow=none;html=1;rounded=0;exitX=0.5;exitY=0;exitDx=0;exitDy=0;entryX=0;entryY=0.5;entryDx=0;entryDy=0;" parent="1" source="YwI35glb4WTkXIQjEgCE-33" target="YwI35glb4WTkXIQjEgCE-45" edge="1">
          <mxGeometry width="50" height="50" relative="1" as="geometry">
            <mxPoint x="380" y="430" as="sourcePoint" />
            <mxPoint x="470" y="410" as="targetPoint" />
            <Array as="points">
              <mxPoint x="280" y="305" />
            </Array>
          </mxGeometry>
        </mxCell>
        <mxCell id="YwI35glb4WTkXIQjEgCE-36" value="1" style="edgeLabel;html=1;align=center;verticalAlign=middle;resizable=0;points=[];" parent="YwI35glb4WTkXIQjEgCE-21" vertex="1" connectable="0">
          <mxGeometry x="0.8733" relative="1" as="geometry">
            <mxPoint x="-9" as="offset" />
          </mxGeometry>
        </mxCell>
        <mxCell id="YwI35glb4WTkXIQjEgCE-22" value="guia" style="rounded=0;whiteSpace=wrap;html=1;" parent="1" vertex="1">
          <mxGeometry x="391" y="400" width="79" height="30" as="geometry" />
        </mxCell>
        <mxCell id="YwI35glb4WTkXIQjEgCE-23" value="&lt;u&gt;idGuia&lt;/u&gt;" style="whiteSpace=wrap;html=1;rounded=1;arcSize=50;align=center;verticalAlign=middle;strokeWidth=1;autosize=1;spacing=4;treeFolding=1;treeMoving=1;newEdgeStyle={&quot;edgeStyle&quot;:&quot;entityRelationEdgeStyle&quot;,&quot;startArrow&quot;:&quot;none&quot;,&quot;endArrow&quot;:&quot;none&quot;,&quot;segment&quot;:10,&quot;curved&quot;:1,&quot;sourcePerimeterSpacing&quot;:0,&quot;targetPerimeterSpacing&quot;:0};" parent="1" vertex="1">
          <mxGeometry x="310" y="380" width="65" height="25" as="geometry" />
        </mxCell>
        <mxCell id="YwI35glb4WTkXIQjEgCE-24" value="" style="edgeStyle=entityRelationEdgeStyle;startArrow=none;endArrow=none;segment=10;curved=1;sourcePerimeterSpacing=0;targetPerimeterSpacing=0;rounded=0;exitX=0;exitY=0.25;exitDx=0;exitDy=0;" parent="1" source="YwI35glb4WTkXIQjEgCE-22" target="YwI35glb4WTkXIQjEgCE-23" edge="1">
          <mxGeometry relative="1" as="geometry">
            <mxPoint x="401" y="370" as="sourcePoint" />
          </mxGeometry>
        </mxCell>
        <mxCell id="YwI35glb4WTkXIQjEgCE-25" value="fechaCreacion" style="whiteSpace=wrap;html=1;rounded=1;arcSize=50;align=center;verticalAlign=middle;strokeWidth=1;autosize=1;spacing=4;treeFolding=1;treeMoving=1;newEdgeStyle={&quot;edgeStyle&quot;:&quot;entityRelationEdgeStyle&quot;,&quot;startArrow&quot;:&quot;none&quot;,&quot;endArrow&quot;:&quot;none&quot;,&quot;segment&quot;:10,&quot;curved&quot;:1,&quot;sourcePerimeterSpacing&quot;:0,&quot;targetPerimeterSpacing&quot;:0};" parent="1" vertex="1">
          <mxGeometry x="462.75" y="360" width="90" height="30" as="geometry" />
        </mxCell>
        <mxCell id="YwI35glb4WTkXIQjEgCE-26" value="" style="edgeStyle=entityRelationEdgeStyle;startArrow=none;endArrow=none;segment=10;curved=1;sourcePerimeterSpacing=0;targetPerimeterSpacing=0;rounded=0;exitX=1;exitY=0;exitDx=0;exitDy=0;entryX=0.5;entryY=1;entryDx=0;entryDy=0;" parent="1" source="YwI35glb4WTkXIQjEgCE-22" target="YwI35glb4WTkXIQjEgCE-25" edge="1">
          <mxGeometry relative="1" as="geometry">
            <mxPoint x="401" y="370" as="sourcePoint" />
            <mxPoint x="421" y="343" as="targetPoint" />
          </mxGeometry>
        </mxCell>
        <mxCell id="YwI35glb4WTkXIQjEgCE-27" value="fechaFinalizaciÃ³n" style="whiteSpace=wrap;html=1;rounded=1;arcSize=50;align=center;verticalAlign=middle;strokeWidth=1;autosize=1;spacing=4;treeFolding=1;treeMoving=1;newEdgeStyle={&quot;edgeStyle&quot;:&quot;entityRelationEdgeStyle&quot;,&quot;startArrow&quot;:&quot;none&quot;,&quot;endArrow&quot;:&quot;none&quot;,&quot;segment&quot;:10,&quot;curved&quot;:1,&quot;sourcePerimeterSpacing&quot;:0,&quot;targetPerimeterSpacing&quot;:0};" parent="1" vertex="1">
          <mxGeometry x="452.5" y="445" width="105" height="20" as="geometry" />
        </mxCell>
        <mxCell id="YwI35glb4WTkXIQjEgCE-28" value="" style="edgeStyle=entityRelationEdgeStyle;startArrow=none;endArrow=none;segment=10;curved=1;sourcePerimeterSpacing=0;targetPerimeterSpacing=0;rounded=0;entryX=0;entryY=0.5;entryDx=0;entryDy=0;" parent="1" target="YwI35glb4WTkXIQjEgCE-27" edge="1">
          <mxGeometry relative="1" as="geometry">
            <mxPoint x="450" y="430" as="sourcePoint" />
            <mxPoint x="480" y="470" as="targetPoint" />
            <Array as="points">
              <mxPoint x="460" y="460" />
            </Array>
          </mxGeometry>
        </mxCell>
        <mxCell id="YwI35glb4WTkXIQjEgCE-29" value="nombre" style="whiteSpace=wrap;html=1;rounded=1;arcSize=50;align=center;verticalAlign=middle;strokeWidth=1;autosize=1;spacing=4;treeFolding=1;treeMoving=1;newEdgeStyle={&quot;edgeStyle&quot;:&quot;entityRelationEdgeStyle&quot;,&quot;startArrow&quot;:&quot;none&quot;,&quot;endArrow&quot;:&quot;none&quot;,&quot;segment&quot;:10,&quot;curved&quot;:1,&quot;sourcePerimeterSpacing&quot;:0,&quot;targetPerimeterSpacing&quot;:0};" parent="1" vertex="1">
          <mxGeometry x="300" y="422.5" width="60" height="15" as="geometry" />
        </mxCell>
        <mxCell id="YwI35glb4WTkXIQjEgCE-30" value="" style="edgeStyle=entityRelationEdgeStyle;startArrow=none;endArrow=none;segment=10;curved=1;sourcePerimeterSpacing=0;targetPerimeterSpacing=0;rounded=0;exitX=0;exitY=1;exitDx=0;exitDy=0;entryX=0.425;entryY=0;entryDx=0;entryDy=0;entryPerimeter=0;" parent="1" source="YwI35glb4WTkXIQjEgCE-22" target="YwI35glb4WTkXIQjEgCE-29" edge="1">
          <mxGeometry relative="1" as="geometry">
            <mxPoint x="411" y="400" as="sourcePoint" />
            <mxPoint x="396" y="360" as="targetPoint" />
          </mxGeometry>
        </mxCell>
        <mxCell id="YwI35glb4WTkXIQjEgCE-31" value="competencia" style="whiteSpace=wrap;html=1;rounded=1;arcSize=50;align=center;verticalAlign=middle;strokeWidth=1;autosize=1;spacing=4;treeFolding=1;treeMoving=1;newEdgeStyle={&quot;edgeStyle&quot;:&quot;entityRelationEdgeStyle&quot;,&quot;startArrow&quot;:&quot;none&quot;,&quot;endArrow&quot;:&quot;none&quot;,&quot;segment&quot;:10,&quot;curved&quot;:1,&quot;sourcePerimeterSpacing&quot;:0,&quot;targetPerimeterSpacing&quot;:0};" parent="1" vertex="1">
          <mxGeometry x="300" y="446.25" width="75" height="20.5" as="geometry" />
        </mxCell>
        <mxCell id="YwI35glb4WTkXIQjEgCE-32" value="" style="edgeStyle=entityRelationEdgeStyle;startArrow=none;endArrow=none;segment=10;curved=1;sourcePerimeterSpacing=0;targetPerimeterSpacing=0;rounded=0;exitX=0.25;exitY=1;exitDx=0;exitDy=0;entryX=0.5;entryY=0;entryDx=0;entryDy=0;" parent="1" source="YwI35glb4WTkXIQjEgCE-22" target="YwI35glb4WTkXIQjEgCE-31" edge="1">
          <mxGeometry relative="1" as="geometry">
            <mxPoint x="401" y="450" as="sourcePoint" />
            <mxPoint x="367" y="460" as="targetPoint" />
            <Array as="points">
              <mxPoint x="400" y="460" />
              <mxPoint x="400" y="460" />
              <mxPoint x="400" y="460" />
            </Array>
          </mxGeometry>
        </mxCell>
        <mxCell id="YwI35glb4WTkXIQjEgCE-38" value="momentos" style="rounded=0;whiteSpace=wrap;html=1;" parent="1" vertex="1">
          <mxGeometry x="380.5" y="556" width="101" height="44" as="geometry" />
        </mxCell>
        <mxCell id="YwI35glb4WTkXIQjEgCE-39" value="" style="endArrow=none;html=1;rounded=0;exitX=0.5;exitY=0;exitDx=0;exitDy=0;entryX=0.5;entryY=1;entryDx=0;entryDy=0;" parent="1" source="YwI35glb4WTkXIQjEgCE-38" target="YwI35glb4WTkXIQjEgCE-22" edge="1">
          <mxGeometry width="50" height="50" relative="1" as="geometry">
            <mxPoint x="330" y="500" as="sourcePoint" />
            <mxPoint x="380" y="450" as="targetPoint" />
            <Array as="points" />
          </mxGeometry>
        </mxCell>
        <mxCell id="YwI35glb4WTkXIQjEgCE-71" value="N" style="edgeLabel;html=1;align=center;verticalAlign=middle;resizable=0;points=[];" parent="YwI35glb4WTkXIQjEgCE-39" vertex="1" connectable="0">
          <mxGeometry x="-0.7827" relative="1" as="geometry">
            <mxPoint as="offset" />
          </mxGeometry>
        </mxCell>
        <mxCell id="YwI35glb4WTkXIQjEgCE-72" value="1" style="edgeLabel;html=1;align=center;verticalAlign=middle;resizable=0;points=[];" parent="YwI35glb4WTkXIQjEgCE-39" vertex="1" connectable="0">
          <mxGeometry x="0.8229" y="-1" relative="1" as="geometry">
            <mxPoint as="offset" />
          </mxGeometry>
        </mxCell>
        <mxCell id="YwI35glb4WTkXIQjEgCE-40" value="&lt;u&gt;idMomento&lt;/u&gt;" style="whiteSpace=wrap;html=1;rounded=1;arcSize=50;align=center;verticalAlign=middle;strokeWidth=1;autosize=1;spacing=4;treeFolding=1;treeMoving=1;newEdgeStyle={&quot;edgeStyle&quot;:&quot;entityRelationEdgeStyle&quot;,&quot;startArrow&quot;:&quot;none&quot;,&quot;endArrow&quot;:&quot;none&quot;,&quot;segment&quot;:10,&quot;curved&quot;:1,&quot;sourcePerimeterSpacing&quot;:0,&quot;targetPerimeterSpacing&quot;:0};" parent="1" vertex="1">
          <mxGeometry x="265" y="615" width="100" height="30" as="geometry" />
        </mxCell>
        <mxCell id="YwI35glb4WTkXIQjEgCE-41" value="" style="edgeStyle=entityRelationEdgeStyle;startArrow=none;endArrow=none;segment=10;curved=1;sourcePerimeterSpacing=0;targetPerimeterSpacing=0;rounded=0;exitX=0;exitY=0.5;exitDx=0;exitDy=0;entryX=1;entryY=0.25;entryDx=0;entryDy=0;" parent="1" source="YwI35glb4WTkXIQjEgCE-38" target="YwI35glb4WTkXIQjEgCE-40" edge="1">
          <mxGeometry relative="1" as="geometry">
            <mxPoint x="217" y="594.5" as="sourcePoint" />
            <mxPoint x="185" y="623.5" as="targetPoint" />
          </mxGeometry>
        </mxCell>
        <mxCell id="YwI35glb4WTkXIQjEgCE-42" value="administrador" style="rounded=0;whiteSpace=wrap;html=1;" parent="1" vertex="1">
          <mxGeometry x="500" y="245" width="80" height="30" as="geometry" />
        </mxCell>
        <mxCell id="YwI35glb4WTkXIQjEgCE-45" value="aplicaciÃ³n" style="rounded=0;whiteSpace=wrap;html=1;" parent="1" vertex="1">
          <mxGeometry x="300" y="285" width="91" height="40" as="geometry" />
        </mxCell>
        <mxCell id="YwI35glb4WTkXIQjEgCE-49" value="" style="endArrow=none;html=1;rounded=0;exitX=1;exitY=0.5;exitDx=0;exitDy=0;entryX=0.5;entryY=1;entryDx=0;entryDy=0;" parent="1" source="YwI35glb4WTkXIQjEgCE-2" target="YwI35glb4WTkXIQjEgCE-33" edge="1">
          <mxGeometry width="50" height="50" relative="1" as="geometry">
            <mxPoint x="270" y="415" as="sourcePoint" />
            <mxPoint x="300" y="300" as="targetPoint" />
            <Array as="points">
              <mxPoint x="280" y="415" />
            </Array>
          </mxGeometry>
        </mxCell>
        <mxCell id="YwI35glb4WTkXIQjEgCE-51" value="1" style="edgeLabel;html=1;align=center;verticalAlign=middle;resizable=0;points=[];" parent="YwI35glb4WTkXIQjEgCE-49" vertex="1" connectable="0">
          <mxGeometry x="-0.8366" relative="1" as="geometry">
            <mxPoint as="offset" />
          </mxGeometry>
        </mxCell>
        <mxCell id="YwI35glb4WTkXIQjEgCE-33" value="usa" style="rhombus;whiteSpace=wrap;html=1;" parent="1" vertex="1">
          <mxGeometry x="250" y="320" width="60" height="62.5" as="geometry" />
        </mxCell>
        <mxCell id="YwI35glb4WTkXIQjEgCE-52" value="" style="endArrow=none;html=1;rounded=0;exitX=1;exitY=0.5;exitDx=0;exitDy=0;entryX=0.5;entryY=0;entryDx=0;entryDy=0;" parent="1" source="YwI35glb4WTkXIQjEgCE-45" target="YwI35glb4WTkXIQjEgCE-22" edge="1">
          <mxGeometry width="50" height="50" relative="1" as="geometry">
            <mxPoint x="390" y="350" as="sourcePoint" />
            <mxPoint x="440" y="300" as="targetPoint" />
            <Array as="points">
              <mxPoint x="430" y="305" />
            </Array>
          </mxGeometry>
        </mxCell>
        <mxCell id="YwI35glb4WTkXIQjEgCE-59" value="N" style="edgeLabel;html=1;align=center;verticalAlign=middle;resizable=0;points=[];" parent="YwI35glb4WTkXIQjEgCE-52" vertex="1" connectable="0">
          <mxGeometry x="0.8025" y="-1" relative="1" as="geometry">
            <mxPoint as="offset" />
          </mxGeometry>
        </mxCell>
        <mxCell id="YwI35glb4WTkXIQjEgCE-60" value="1" style="edgeLabel;html=1;align=center;verticalAlign=middle;resizable=0;points=[];" parent="YwI35glb4WTkXIQjEgCE-52" vertex="1" connectable="0">
          <mxGeometry x="-0.8122" y="-1" relative="1" as="geometry">
            <mxPoint as="offset" />
          </mxGeometry>
        </mxCell>
        <mxCell id="YwI35glb4WTkXIQjEgCE-53" value="desarrolla" style="rhombus;whiteSpace=wrap;html=1;" parent="1" vertex="1">
          <mxGeometry x="400.5" y="317.5" width="60" height="52.5" as="geometry" />
        </mxCell>
        <mxCell id="YwI35glb4WTkXIQjEgCE-54" value="" style="endArrow=none;html=1;rounded=0;entryX=0;entryY=0.5;entryDx=0;entryDy=0;exitX=0.5;exitY=0;exitDx=0;exitDy=0;" parent="1" source="YwI35glb4WTkXIQjEgCE-45" target="YwI35glb4WTkXIQjEgCE-42" edge="1">
          <mxGeometry width="50" height="50" relative="1" as="geometry">
            <mxPoint x="350" y="310" as="sourcePoint" />
            <mxPoint x="400" y="260" as="targetPoint" />
            <Array as="points">
              <mxPoint x="346" y="260" />
            </Array>
          </mxGeometry>
        </mxCell>
        <mxCell id="YwI35glb4WTkXIQjEgCE-56" value="1" style="edgeLabel;html=1;align=center;verticalAlign=middle;resizable=0;points=[];" parent="YwI35glb4WTkXIQjEgCE-54" vertex="1" connectable="0">
          <mxGeometry x="0.8842" relative="1" as="geometry">
            <mxPoint as="offset" />
          </mxGeometry>
        </mxCell>
        <mxCell id="YwI35glb4WTkXIQjEgCE-57" value="1" style="edgeLabel;html=1;align=center;verticalAlign=middle;resizable=0;points=[];" parent="YwI35glb4WTkXIQjEgCE-54" vertex="1" connectable="0">
          <mxGeometry x="-0.8212" y="-1" relative="1" as="geometry">
            <mxPoint as="offset" />
          </mxGeometry>
        </mxCell>
        <mxCell id="YwI35glb4WTkXIQjEgCE-55" value="gestiona" style="rhombus;whiteSpace=wrap;html=1;" parent="1" vertex="1">
          <mxGeometry x="398.25" y="232.5" width="64.5" height="55" as="geometry" />
        </mxCell>
        <mxCell id="YwI35glb4WTkXIQjEgCE-70" value="contiene" style="rhombus;whiteSpace=wrap;html=1;" parent="1" vertex="1">
          <mxGeometry x="400.5" y="460.5" width="61" height="50" as="geometry" />
        </mxCell>
        <mxCell id="YwI35glb4WTkXIQjEgCE-73" value="contenido" style="whiteSpace=wrap;html=1;rounded=1;arcSize=50;align=center;verticalAlign=middle;strokeWidth=1;autosize=1;spacing=4;treeFolding=1;treeMoving=1;newEdgeStyle={&quot;edgeStyle&quot;:&quot;entityRelationEdgeStyle&quot;,&quot;startArrow&quot;:&quot;none&quot;,&quot;endArrow&quot;:&quot;none&quot;,&quot;segment&quot;:10,&quot;curved&quot;:1,&quot;sourcePerimeterSpacing&quot;:0,&quot;targetPerimeterSpacing&quot;:0};" parent="1" vertex="1">
          <mxGeometry x="365" y="640" width="75" height="30" as="geometry" />
        </mxCell>
        <mxCell id="YwI35glb4WTkXIQjEgCE-75" value="" style="endArrow=none;html=1;rounded=0;exitX=0.5;exitY=0;exitDx=0;exitDy=0;" parent="1" source="YwI35glb4WTkXIQjEgCE-73" edge="1">
          <mxGeometry width="50" height="50" relative="1" as="geometry">
            <mxPoint x="340" y="610" as="sourcePoint" />
            <mxPoint x="400" y="600" as="targetPoint" />
          </mxGeometry>
        </mxCell>
        <mxCell id="YwI35glb4WTkXIQjEgCE-76" value="cantidad" style="whiteSpace=wrap;html=1;rounded=1;arcSize=50;align=center;verticalAlign=middle;strokeWidth=1;autosize=1;spacing=4;treeFolding=1;treeMoving=1;newEdgeStyle={&quot;edgeStyle&quot;:&quot;entityRelationEdgeStyle&quot;,&quot;startArrow&quot;:&quot;none&quot;,&quot;endArrow&quot;:&quot;none&quot;,&quot;segment&quot;:10,&quot;curved&quot;:1,&quot;sourcePerimeterSpacing&quot;:0,&quot;targetPerimeterSpacing&quot;:0};" parent="1" vertex="1">
          <mxGeometry x="452.5" y="620" width="70" height="20" as="geometry" />
        </mxCell>
        <mxCell id="YwI35glb4WTkXIQjEgCE-77" value="" style="endArrow=none;html=1;rounded=0;exitX=0.5;exitY=0;exitDx=0;exitDy=0;entryX=0.5;entryY=1;entryDx=0;entryDy=0;" parent="1" source="YwI35glb4WTkXIQjEgCE-76" target="YwI35glb4WTkXIQjEgCE-38" edge="1">
          <mxGeometry width="50" height="50" relative="1" as="geometry">
            <mxPoint x="361" y="630" as="sourcePoint" />
            <mxPoint x="410" y="610" as="targetPoint" />
          </mxGeometry>
        </mxCell>
        <mxCell id="YwI35glb4WTkXIQjEgCE-78" value="idAplicaciÃ³n" style="whiteSpace=wrap;html=1;rounded=1;arcSize=50;align=center;verticalAlign=middle;strokeWidth=1;autosize=1;spacing=4;treeFolding=1;treeMoving=1;newEdgeStyle={&quot;edgeStyle&quot;:&quot;entityRelationEdgeStyle&quot;,&quot;startArrow&quot;:&quot;none&quot;,&quot;endArrow&quot;:&quot;none&quot;,&quot;segment&quot;:10,&quot;curved&quot;:1,&quot;sourcePerimeterSpacing&quot;:0,&quot;targetPerimeterSpacing&quot;:0};" parent="1" vertex="1">
          <mxGeometry x="155" y="257.5" width="95" height="22.5" as="geometry" />
        </mxCell>
        <mxCell id="YwI35glb4WTkXIQjEgCE-80" value="" style="endArrow=none;html=1;rounded=0;exitX=0;exitY=0;exitDx=0;exitDy=0;entryX=1;entryY=0.5;entryDx=0;entryDy=0;" parent="1" source="YwI35glb4WTkXIQjEgCE-45" target="YwI35glb4WTkXIQjEgCE-78" edge="1">
          <mxGeometry width="50" height="50" relative="1" as="geometry">
            <mxPoint x="320" y="320" as="sourcePoint" />
            <mxPoint x="370" y="270" as="targetPoint" />
          </mxGeometry>
        </mxCell>
        <mxCell id="YwI35glb4WTkXIQjEgCE-81" value="version" style="whiteSpace=wrap;html=1;rounded=1;arcSize=50;align=center;verticalAlign=middle;strokeWidth=1;autosize=1;spacing=4;treeFolding=1;treeMoving=1;newEdgeStyle={&quot;edgeStyle&quot;:&quot;entityRelationEdgeStyle&quot;,&quot;startArrow&quot;:&quot;none&quot;,&quot;endArrow&quot;:&quot;none&quot;,&quot;segment&quot;:10,&quot;curved&quot;:1,&quot;sourcePerimeterSpacing&quot;:0,&quot;targetPerimeterSpacing&quot;:0};" parent="1" vertex="1">
          <mxGeometry x="160" y="287.5" width="70" height="15.5" as="geometry" />
        </mxCell>
        <mxCell id="YwI35glb4WTkXIQjEgCE-83" value="" style="endArrow=none;html=1;rounded=0;exitX=1;exitY=0.5;exitDx=0;exitDy=0;entryX=0;entryY=0.25;entryDx=0;entryDy=0;" parent="1" source="YwI35glb4WTkXIQjEgCE-81" target="YwI35glb4WTkXIQjEgCE-45" edge="1">
          <mxGeometry width="50" height="50" relative="1" as="geometry">
            <mxPoint x="320" y="310" as="sourcePoint" />
            <mxPoint x="370" y="260" as="targetPoint" />
          </mxGeometry>
        </mxCell>
        <mxCell id="YwI35glb4WTkXIQjEgCE-84" value="funcionalidades" style="whiteSpace=wrap;html=1;rounded=1;arcSize=50;align=center;verticalAlign=middle;strokeWidth=1;autosize=1;spacing=4;treeFolding=1;treeMoving=1;newEdgeStyle={&quot;edgeStyle&quot;:&quot;entityRelationEdgeStyle&quot;,&quot;startArrow&quot;:&quot;none&quot;,&quot;endArrow&quot;:&quot;none&quot;,&quot;segment&quot;:10,&quot;curved&quot;:1,&quot;sourcePerimeterSpacing&quot;:0,&quot;targetPerimeterSpacing&quot;:0};" parent="1" vertex="1" collapsed="1">
          <mxGeometry x="170" y="232.5" width="116" height="17.5" as="geometry" />
        </mxCell>
        <mxCell id="YwI35glb4WTkXIQjEgCE-85" value="" style="endArrow=none;html=1;rounded=0;exitX=0.25;exitY=0;exitDx=0;exitDy=0;entryX=0.75;entryY=1;entryDx=0;entryDy=0;" parent="1" source="YwI35glb4WTkXIQjEgCE-45" target="YwI35glb4WTkXIQjEgCE-84" edge="1">
          <mxGeometry width="50" height="50" relative="1" as="geometry">
            <mxPoint x="340" y="340" as="sourcePoint" />
            <mxPoint x="390" y="290" as="targetPoint" />
          </mxGeometry>
        </mxCell>
        <mxCell id="YwI35glb4WTkXIQjEgCE-88" value="&lt;u&gt;idAdministrador&lt;/u&gt;" style="whiteSpace=wrap;html=1;rounded=1;arcSize=50;align=center;verticalAlign=middle;strokeWidth=1;autosize=1;spacing=4;treeFolding=1;treeMoving=1;newEdgeStyle={&quot;edgeStyle&quot;:&quot;entityRelationEdgeStyle&quot;,&quot;startArrow&quot;:&quot;none&quot;,&quot;endArrow&quot;:&quot;none&quot;,&quot;segment&quot;:10,&quot;curved&quot;:1,&quot;sourcePerimeterSpacing&quot;:0,&quot;targetPerimeterSpacing&quot;:0};" parent="1" vertex="1">
          <mxGeometry x="381" y="195" width="130" height="30" as="geometry" />
        </mxCell>
        <mxCell id="YwI35glb4WTkXIQjEgCE-89" value="" style="endArrow=none;html=1;rounded=0;exitX=0.25;exitY=0;exitDx=0;exitDy=0;entryX=0.5;entryY=1;entryDx=0;entryDy=0;" parent="1" source="YwI35glb4WTkXIQjEgCE-42" target="YwI35glb4WTkXIQjEgCE-88" edge="1">
          <mxGeometry width="50" height="50" relative="1" as="geometry">
            <mxPoint x="510" y="270" as="sourcePoint" />
            <mxPoint x="560" y="220" as="targetPoint" />
          </mxGeometry>
        </mxCell>
        <mxCell id="YwI35glb4WTkXIQjEgCE-90" value="email" style="whiteSpace=wrap;html=1;rounded=1;arcSize=50;align=center;verticalAlign=middle;strokeWidth=1;autosize=1;spacing=4;treeFolding=1;treeMoving=1;newEdgeStyle={&quot;edgeStyle&quot;:&quot;entityRelationEdgeStyle&quot;,&quot;startArrow&quot;:&quot;none&quot;,&quot;endArrow&quot;:&quot;none&quot;,&quot;segment&quot;:10,&quot;curved&quot;:1,&quot;sourcePerimeterSpacing&quot;:0,&quot;targetPerimeterSpacing&quot;:0};" parent="1" vertex="1">
          <mxGeometry x="480" y="180" width="62.75" height="15" as="geometry" />
        </mxCell>
        <mxCell id="YwI35glb4WTkXIQjEgCE-92" value="" style="endArrow=none;html=1;rounded=0;exitX=0.5;exitY=0;exitDx=0;exitDy=0;entryX=0.5;entryY=1;entryDx=0;entryDy=0;" parent="1" source="YwI35glb4WTkXIQjEgCE-42" target="YwI35glb4WTkXIQjEgCE-90" edge="1">
          <mxGeometry width="50" height="50" relative="1" as="geometry">
            <mxPoint x="540" y="270" as="sourcePoint" />
            <mxPoint x="590" y="220" as="targetPoint" />
          </mxGeometry>
        </mxCell>
        <mxCell id="YwI35glb4WTkXIQjEgCE-93" value="telefono" style="whiteSpace=wrap;html=1;rounded=1;arcSize=50;align=center;verticalAlign=middle;strokeWidth=1;autosize=1;spacing=4;treeFolding=1;treeMoving=1;newEdgeStyle={&quot;edgeStyle&quot;:&quot;entityRelationEdgeStyle&quot;,&quot;startArrow&quot;:&quot;none&quot;,&quot;endArrow&quot;:&quot;none&quot;,&quot;segment&quot;:10,&quot;curved&quot;:1,&quot;sourcePerimeterSpacing&quot;:0,&quot;targetPerimeterSpacing&quot;:0};" parent="1" vertex="1">
          <mxGeometry x="530" y="202.25" width="69.62" height="15.5" as="geometry" />
        </mxCell>
        <mxCell id="YwI35glb4WTkXIQjEgCE-94" value="" style="endArrow=none;html=1;rounded=0;exitX=0.692;exitY=0.014;exitDx=0;exitDy=0;exitPerimeter=0;entryX=0.25;entryY=1;entryDx=0;entryDy=0;" parent="1" source="YwI35glb4WTkXIQjEgCE-42" target="YwI35glb4WTkXIQjEgCE-93" edge="1">
          <mxGeometry width="50" height="50" relative="1" as="geometry">
            <mxPoint x="540" y="270" as="sourcePoint" />
            <mxPoint x="590" y="220" as="targetPoint" />
          </mxGeometry>
        </mxCell>
        <mxCell id="YwI35glb4WTkXIQjEgCE-100" value="instructor" style="swimlane;fontStyle=0;childLayout=stackLayout;horizontal=1;startSize=30;horizontalStack=0;resizeParent=1;resizeParentMax=0;resizeLast=0;collapsible=1;marginBottom=0;whiteSpace=wrap;html=1;" parent="1" vertex="1">
          <mxGeometry x="700" y="320" width="140" height="240" as="geometry" />
        </mxCell>
        <mxCell id="YwI35glb4WTkXIQjEgCE-101" value="PK&lt;u style=&quot;text-align: center;&quot;&gt;idInstructor&lt;/u&gt;" style="text;strokeColor=none;fillColor=none;align=left;verticalAlign=middle;spacingLeft=4;spacingRight=4;overflow=hidden;points=[[0,0.5],[1,0.5]];portConstraint=eastwest;rotatable=0;whiteSpace=wrap;html=1;dashed=1;dashPattern=1 4;" parent="YwI35glb4WTkXIQjEgCE-100" vertex="1">
          <mxGeometry y="30" width="140" height="30" as="geometry" />
        </mxCell>
        <mxCell id="YwI35glb4WTkXIQjEgCE-102" value="&lt;span style=&quot;text-align: center;&quot;&gt;nombre&lt;/span&gt;" style="text;strokeColor=none;fillColor=none;align=left;verticalAlign=middle;spacingLeft=4;spacingRight=4;overflow=hidden;points=[[0,0.5],[1,0.5]];portConstraint=eastwest;rotatable=0;whiteSpace=wrap;html=1;" parent="YwI35glb4WTkXIQjEgCE-100" vertex="1">
          <mxGeometry y="60" width="140" height="30" as="geometry" />
        </mxCell>
        <mxCell id="YwI35glb4WTkXIQjEgCE-105" value="&lt;span style=&quot;text-align: center;&quot;&gt;edad&lt;/span&gt;" style="text;strokeColor=none;fillColor=none;align=left;verticalAlign=middle;spacingLeft=4;spacingRight=4;overflow=hidden;points=[[0,0.5],[1,0.5]];portConstraint=eastwest;rotatable=0;whiteSpace=wrap;html=1;" parent="YwI35glb4WTkXIQjEgCE-100" vertex="1">
          <mxGeometry y="90" width="140" height="30" as="geometry" />
        </mxCell>
        <mxCell id="YwI35glb4WTkXIQjEgCE-108" value="&lt;span style=&quot;text-align: center;&quot;&gt;especialidad&lt;/span&gt;" style="text;strokeColor=none;fillColor=none;align=left;verticalAlign=middle;spacingLeft=4;spacingRight=4;overflow=hidden;points=[[0,0.5],[1,0.5]];portConstraint=eastwest;rotatable=0;whiteSpace=wrap;html=1;" parent="YwI35glb4WTkXIQjEgCE-100" vertex="1">
          <mxGeometry y="120" width="140" height="30" as="geometry" />
        </mxCell>
        <mxCell id="YwI35glb4WTkXIQjEgCE-106" value="&lt;span style=&quot;color: rgb(0, 0, 0); font-family: Helvetica; font-size: 12px; font-style: normal; font-variant-ligatures: normal; font-variant-caps: normal; font-weight: 400; letter-spacing: normal; orphans: 2; text-align: center; text-indent: 0px; text-transform: none; widows: 2; word-spacing: 0px; -webkit-text-stroke-width: 0px; white-space: normal; background-color: rgb(251, 251, 251); text-decoration-thickness: initial; text-decoration-style: initial; text-decoration-color: initial; display: inline !important; float: none;&quot;&gt;&amp;nbsp;experiencia&lt;/span&gt;" style="text;whiteSpace=wrap;html=1;" parent="YwI35glb4WTkXIQjEgCE-100" vertex="1">
          <mxGeometry y="150" width="140" height="30" as="geometry" />
        </mxCell>
        <mxCell id="YwI35glb4WTkXIQjEgCE-109" value="&lt;span style=&quot;text-align: center;&quot;&gt;email&lt;/span&gt;" style="text;strokeColor=none;fillColor=none;align=left;verticalAlign=middle;spacingLeft=4;spacingRight=4;overflow=hidden;points=[[0,0.5],[1,0.5]];portConstraint=eastwest;rotatable=0;whiteSpace=wrap;html=1;" parent="YwI35glb4WTkXIQjEgCE-100" vertex="1">
          <mxGeometry y="180" width="140" height="30" as="geometry" />
        </mxCell>
        <mxCell id="YwI35glb4WTkXIQjEgCE-103" value="&lt;span style=&quot;text-align: center;&quot;&gt;tel&lt;/span&gt;" style="text;strokeColor=none;fillColor=none;align=left;verticalAlign=middle;spacingLeft=4;spacingRight=4;overflow=hidden;points=[[0,0.5],[1,0.5]];portConstraint=eastwest;rotatable=0;whiteSpace=wrap;html=1;" parent="YwI35glb4WTkXIQjEgCE-100" vertex="1">
          <mxGeometry y="210" width="140" height="30" as="geometry" />
        </mxCell>
        <mxCell id="YwI35glb4WTkXIQjEgCE-110" value="aplicaciÃ³n" style="swimlane;fontStyle=0;childLayout=stackLayout;horizontal=1;startSize=30;horizontalStack=0;resizeParent=1;resizeParentMax=0;resizeLast=0;collapsible=1;marginBottom=0;whiteSpace=wrap;html=1;" parent="1" vertex="1">
          <mxGeometry x="930" y="320" width="140" height="180" as="geometry" />
        </mxCell>
        <mxCell id="YwI35glb4WTkXIQjEgCE-111" value="PK&lt;u style=&quot;text-align: center;&quot;&gt;idAplicaciÃ³n&lt;/u&gt;" style="text;strokeColor=none;fillColor=none;align=left;verticalAlign=middle;spacingLeft=4;spacingRight=4;overflow=hidden;points=[[0,0.5],[1,0.5]];portConstraint=eastwest;rotatable=0;whiteSpace=wrap;html=1;dashed=1;dashPattern=1 4;" parent="YwI35glb4WTkXIQjEgCE-110" vertex="1">
          <mxGeometry y="30" width="140" height="30" as="geometry" />
        </mxCell>
        <mxCell id="YwI35glb4WTkXIQjEgCE-112" value="&lt;span style=&quot;text-align: center;&quot;&gt;funcionalidades&lt;/span&gt;" style="text;strokeColor=none;fillColor=none;align=left;verticalAlign=middle;spacingLeft=4;spacingRight=4;overflow=hidden;points=[[0,0.5],[1,0.5]];portConstraint=eastwest;rotatable=0;whiteSpace=wrap;html=1;" parent="YwI35glb4WTkXIQjEgCE-110" vertex="1">
          <mxGeometry y="60" width="140" height="30" as="geometry" />
        </mxCell>
        <mxCell id="YwI35glb4WTkXIQjEgCE-113" value="&lt;span style=&quot;text-align: center;&quot;&gt;version&lt;/span&gt;" style="text;strokeColor=none;fillColor=none;align=left;verticalAlign=middle;spacingLeft=4;spacingRight=4;overflow=hidden;points=[[0,0.5],[1,0.5]];portConstraint=eastwest;rotatable=0;whiteSpace=wrap;html=1;" parent="YwI35glb4WTkXIQjEgCE-110" vertex="1">
          <mxGeometry y="90" width="140" height="30" as="geometry" />
        </mxCell>
        <mxCell id="YwI35glb4WTkXIQjEgCE-117" value="&lt;span style=&quot;text-align: center;&quot;&gt;FKIdAdministrador&lt;/span&gt;" style="text;strokeColor=none;fillColor=none;align=left;verticalAlign=middle;spacingLeft=4;spacingRight=4;overflow=hidden;points=[[0,0.5],[1,0.5]];portConstraint=eastwest;rotatable=0;whiteSpace=wrap;html=1;" parent="YwI35glb4WTkXIQjEgCE-110" vertex="1">
          <mxGeometry y="120" width="140" height="30" as="geometry" />
        </mxCell>
        <mxCell id="YwI35glb4WTkXIQjEgCE-144" value="" style="endArrow=none;html=1;rounded=0;entryX=0;entryY=0.667;entryDx=0;entryDy=0;entryPerimeter=0;" parent="YwI35glb4WTkXIQjEgCE-110" target="YwI35glb4WTkXIQjEgCE-117" edge="1">
          <mxGeometry width="50" height="50" relative="1" as="geometry">
            <mxPoint x="-10" y="130" as="sourcePoint" />
            <mxPoint y="137" as="targetPoint" />
          </mxGeometry>
        </mxCell>
        <mxCell id="YwI35glb4WTkXIQjEgCE-139" value="&lt;span style=&quot;text-align: center;&quot;&gt;FKIdInstructor&lt;/span&gt;" style="text;strokeColor=none;fillColor=none;align=left;verticalAlign=middle;spacingLeft=4;spacingRight=4;overflow=hidden;points=[[0,0.5],[1,0.5]];portConstraint=eastwest;rotatable=0;whiteSpace=wrap;html=1;" parent="YwI35glb4WTkXIQjEgCE-110" vertex="1">
          <mxGeometry y="150" width="140" height="30" as="geometry" />
        </mxCell>
        <mxCell id="YwI35glb4WTkXIQjEgCE-119" value="" style="endArrow=none;html=1;rounded=0;" parent="1" edge="1">
          <mxGeometry width="50" height="50" relative="1" as="geometry">
            <mxPoint x="840" y="380" as="sourcePoint" />
            <mxPoint x="840" y="360" as="targetPoint" />
          </mxGeometry>
        </mxCell>
        <mxCell id="YwI35glb4WTkXIQjEgCE-122" value="guia" style="swimlane;fontStyle=0;childLayout=stackLayout;horizontal=1;startSize=30;horizontalStack=0;resizeParent=1;resizeParentMax=0;resizeLast=0;collapsible=1;marginBottom=0;whiteSpace=wrap;html=1;" parent="1" vertex="1">
          <mxGeometry x="1160" y="320" width="140" height="240" as="geometry" />
        </mxCell>
        <mxCell id="YwI35glb4WTkXIQjEgCE-123" value="PKI&lt;u style=&quot;text-align: center;&quot;&gt;dGuia&lt;/u&gt;" style="text;strokeColor=none;fillColor=none;align=left;verticalAlign=middle;spacingLeft=4;spacingRight=4;overflow=hidden;points=[[0,0.5],[1,0.5]];portConstraint=eastwest;rotatable=0;whiteSpace=wrap;html=1;dashed=1;dashPattern=1 4;" parent="YwI35glb4WTkXIQjEgCE-122" vertex="1">
          <mxGeometry y="30" width="140" height="30" as="geometry" />
        </mxCell>
        <mxCell id="YwI35glb4WTkXIQjEgCE-124" value="&lt;span style=&quot;text-align: center;&quot;&gt;nombre&lt;/span&gt;" style="text;strokeColor=none;fillColor=none;align=left;verticalAlign=middle;spacingLeft=4;spacingRight=4;overflow=hidden;points=[[0,0.5],[1,0.5]];portConstraint=eastwest;rotatable=0;whiteSpace=wrap;html=1;" parent="YwI35glb4WTkXIQjEgCE-122" vertex="1">
          <mxGeometry y="60" width="140" height="30" as="geometry" />
        </mxCell>
        <mxCell id="YwI35glb4WTkXIQjEgCE-125" value="&lt;span style=&quot;text-align: center;&quot;&gt;competencia&lt;/span&gt;" style="text;strokeColor=none;fillColor=none;align=left;verticalAlign=middle;spacingLeft=4;spacingRight=4;overflow=hidden;points=[[0,0.5],[1,0.5]];portConstraint=eastwest;rotatable=0;whiteSpace=wrap;html=1;" parent="YwI35glb4WTkXIQjEgCE-122" vertex="1">
          <mxGeometry y="90" width="140" height="30" as="geometry" />
        </mxCell>
        <mxCell id="YwI35glb4WTkXIQjEgCE-126" value="&lt;span style=&quot;text-align: center;&quot;&gt;fechaFinalizacion&lt;/span&gt;" style="text;strokeColor=none;fillColor=none;align=left;verticalAlign=middle;spacingLeft=4;spacingRight=4;overflow=hidden;points=[[0,0.5],[1,0.5]];portConstraint=eastwest;rotatable=0;whiteSpace=wrap;html=1;" parent="YwI35glb4WTkXIQjEgCE-122" vertex="1">
          <mxGeometry y="120" width="140" height="30" as="geometry" />
        </mxCell>
        <mxCell id="YwI35glb4WTkXIQjEgCE-127" value="&lt;span style=&quot;color: rgb(0, 0, 0); font-family: Helvetica; font-size: 12px; font-style: normal; font-variant-ligatures: normal; font-variant-caps: normal; font-weight: 400; letter-spacing: normal; orphans: 2; text-align: center; text-indent: 0px; text-transform: none; widows: 2; word-spacing: 0px; -webkit-text-stroke-width: 0px; white-space: normal; background-color: rgb(251, 251, 251); text-decoration-thickness: initial; text-decoration-style: initial; text-decoration-color: initial; display: inline !important; float: none;&quot;&gt;&amp;nbsp;fechaCreacion&lt;/span&gt;" style="text;whiteSpace=wrap;html=1;" parent="YwI35glb4WTkXIQjEgCE-122" vertex="1">
          <mxGeometry y="150" width="140" height="30" as="geometry" />
        </mxCell>
        <mxCell id="YwI35glb4WTkXIQjEgCE-128" value="&lt;span style=&quot;text-align: center;&quot;&gt;FKIdAplicaciÃ³n&lt;/span&gt;" style="text;strokeColor=none;fillColor=none;align=left;verticalAlign=middle;spacingLeft=4;spacingRight=4;overflow=hidden;points=[[0,0.5],[1,0.5]];portConstraint=eastwest;rotatable=0;whiteSpace=wrap;html=1;" parent="YwI35glb4WTkXIQjEgCE-122" vertex="1">
          <mxGeometry y="180" width="140" height="30" as="geometry" />
        </mxCell>
        <mxCell id="YwI35glb4WTkXIQjEgCE-129" value="&lt;span style=&quot;text-align: center;&quot;&gt;FKIdMomento&lt;/span&gt;" style="text;strokeColor=none;fillColor=none;align=left;verticalAlign=middle;spacingLeft=4;spacingRight=4;overflow=hidden;points=[[0,0.5],[1,0.5]];portConstraint=eastwest;rotatable=0;whiteSpace=wrap;html=1;" parent="YwI35glb4WTkXIQjEgCE-122" vertex="1">
          <mxGeometry y="210" width="140" height="30" as="geometry" />
        </mxCell>
        <mxCell id="YwI35glb4WTkXIQjEgCE-149" value="" style="endArrow=none;html=1;rounded=0;entryX=0.005;entryY=0.345;entryDx=0;entryDy=0;entryPerimeter=0;exitX=0.001;exitY=0.993;exitDx=0;exitDy=0;exitPerimeter=0;" parent="YwI35glb4WTkXIQjEgCE-122" source="YwI35glb4WTkXIQjEgCE-128" target="YwI35glb4WTkXIQjEgCE-128" edge="1">
          <mxGeometry width="50" height="50" relative="1" as="geometry">
            <mxPoint x="-10" y="210.5" as="sourcePoint" />
            <mxPoint x="-10" y="190.5" as="targetPoint" />
            <Array as="points">
              <mxPoint x="-10" y="200" />
            </Array>
          </mxGeometry>
        </mxCell>
        <mxCell id="YwI35glb4WTkXIQjEgCE-165" value="" style="endArrow=none;html=1;rounded=0;entryX=1.001;entryY=0.335;entryDx=0;entryDy=0;entryPerimeter=0;exitX=0.999;exitY=1;exitDx=0;exitDy=0;exitPerimeter=0;" parent="YwI35glb4WTkXIQjEgCE-122" source="YwI35glb4WTkXIQjEgCE-129" target="YwI35glb4WTkXIQjEgCE-129" edge="1">
          <mxGeometry width="50" height="50" relative="1" as="geometry">
            <mxPoint x="150" y="240" as="sourcePoint" />
            <mxPoint x="150" y="220" as="targetPoint" />
            <Array as="points">
              <mxPoint x="150" y="230" />
            </Array>
          </mxGeometry>
        </mxCell>
        <mxCell id="YwI35glb4WTkXIQjEgCE-130" value="administrador" style="swimlane;fontStyle=0;childLayout=stackLayout;horizontal=1;startSize=30;horizontalStack=0;resizeParent=1;resizeParentMax=0;resizeLast=0;collapsible=1;marginBottom=0;whiteSpace=wrap;html=1;" parent="1" vertex="1">
          <mxGeometry x="930" y="160" width="140" height="120" as="geometry" />
        </mxCell>
        <mxCell id="YwI35glb4WTkXIQjEgCE-131" value="PKI&lt;u style=&quot;text-align: center;&quot;&gt;dAdministrador&lt;/u&gt;" style="text;strokeColor=none;fillColor=none;align=left;verticalAlign=middle;spacingLeft=4;spacingRight=4;overflow=hidden;points=[[0,0.5],[1,0.5]];portConstraint=eastwest;rotatable=0;whiteSpace=wrap;html=1;dashed=1;dashPattern=1 4;" parent="YwI35glb4WTkXIQjEgCE-130" vertex="1">
          <mxGeometry y="30" width="140" height="30" as="geometry" />
        </mxCell>
        <mxCell id="YwI35glb4WTkXIQjEgCE-132" value="&lt;span style=&quot;text-align: center;&quot;&gt;email&lt;/span&gt;" style="text;strokeColor=none;fillColor=none;align=left;verticalAlign=middle;spacingLeft=4;spacingRight=4;overflow=hidden;points=[[0,0.5],[1,0.5]];portConstraint=eastwest;rotatable=0;whiteSpace=wrap;html=1;" parent="YwI35glb4WTkXIQjEgCE-130" vertex="1">
          <mxGeometry y="60" width="140" height="30" as="geometry" />
        </mxCell>
        <mxCell id="YwI35glb4WTkXIQjEgCE-133" value="&lt;span style=&quot;text-align: center;&quot;&gt;telefono&lt;/span&gt;" style="text;strokeColor=none;fillColor=none;align=left;verticalAlign=middle;spacingLeft=4;spacingRight=4;overflow=hidden;points=[[0,0.5],[1,0.5]];portConstraint=eastwest;rotatable=0;whiteSpace=wrap;html=1;" parent="YwI35glb4WTkXIQjEgCE-130" vertex="1">
          <mxGeometry y="90" width="140" height="30" as="geometry" />
        </mxCell>
        <mxCell id="YwI35glb4WTkXIQjEgCE-135" value="" style="endArrow=none;html=1;rounded=0;exitX=0.003;exitY=0.656;exitDx=0;exitDy=0;entryX=0;entryY=0.351;entryDx=0;entryDy=0;entryPerimeter=0;exitPerimeter=0;" parent="1" source="YwI35glb4WTkXIQjEgCE-131" target="YwI35glb4WTkXIQjEgCE-117" edge="1">
          <mxGeometry width="50" height="50" relative="1" as="geometry">
            <mxPoint x="827" y="167.5" as="sourcePoint" />
            <mxPoint x="910" y="420" as="targetPoint" />
            <Array as="points">
              <mxPoint x="880" y="210" />
              <mxPoint x="880" y="320" />
              <mxPoint x="880" y="450" />
            </Array>
          </mxGeometry>
        </mxCell>
        <mxCell id="YwI35glb4WTkXIQjEgCE-140" value="" style="endArrow=none;html=1;rounded=0;entryX=0;entryY=0.311;entryDx=0;entryDy=0;entryPerimeter=0;" parent="1" edge="1">
          <mxGeometry width="50" height="50" relative="1" as="geometry">
            <mxPoint x="920" y="480.33" as="sourcePoint" />
            <mxPoint x="930" y="469.66" as="targetPoint" />
          </mxGeometry>
        </mxCell>
        <mxCell id="YwI35glb4WTkXIQjEgCE-118" value="" style="endArrow=none;html=1;rounded=0;entryX=0.002;entryY=0.338;entryDx=0;entryDy=0;entryPerimeter=0;exitX=1.003;exitY=0.329;exitDx=0;exitDy=0;exitPerimeter=0;" parent="1" source="YwI35glb4WTkXIQjEgCE-101" target="YwI35glb4WTkXIQjEgCE-139" edge="1">
          <mxGeometry width="50" height="50" relative="1" as="geometry">
            <mxPoint x="829.3" y="372.09" as="sourcePoint" />
            <mxPoint x="929.9999999999999" y="491.4099999999999" as="targetPoint" />
            <Array as="points">
              <mxPoint x="860" y="360" />
              <mxPoint x="859.7199999999999" y="431.75" />
              <mxPoint x="860" y="480" />
            </Array>
          </mxGeometry>
        </mxCell>
        <mxCell id="YwI35glb4WTkXIQjEgCE-141" value="" style="endArrow=none;html=1;rounded=0;" parent="1" edge="1">
          <mxGeometry width="50" height="50" relative="1" as="geometry">
            <mxPoint x="920" y="480" as="sourcePoint" />
            <mxPoint x="930" y="490" as="targetPoint" />
          </mxGeometry>
        </mxCell>
        <mxCell id="YwI35glb4WTkXIQjEgCE-142" value="" style="endArrow=none;html=1;rounded=0;" parent="1" edge="1">
          <mxGeometry width="50" height="50" relative="1" as="geometry">
            <mxPoint x="920" y="220" as="sourcePoint" />
            <mxPoint x="920" y="200" as="targetPoint" />
          </mxGeometry>
        </mxCell>
        <mxCell id="YwI35glb4WTkXIQjEgCE-143" value="" style="endArrow=none;html=1;rounded=0;entryX=0.001;entryY=0.013;entryDx=0;entryDy=0;entryPerimeter=0;" parent="1" target="YwI35glb4WTkXIQjEgCE-117" edge="1">
          <mxGeometry width="50" height="50" relative="1" as="geometry">
            <mxPoint x="920" y="450.25" as="sourcePoint" />
            <mxPoint x="930" y="446.25" as="targetPoint" />
          </mxGeometry>
        </mxCell>
        <mxCell id="YwI35glb4WTkXIQjEgCE-145" value="" style="endArrow=none;html=1;rounded=0;" parent="1" edge="1">
          <mxGeometry width="50" height="50" relative="1" as="geometry">
            <mxPoint x="850" y="370" as="sourcePoint" />
            <mxPoint x="850" y="350" as="targetPoint" />
          </mxGeometry>
        </mxCell>
        <mxCell id="YwI35glb4WTkXIQjEgCE-147" value="" style="endArrow=none;html=1;rounded=0;exitX=1.007;exitY=0.32;exitDx=0;exitDy=0;exitPerimeter=0;entryX=-0.001;entryY=0.678;entryDx=0;entryDy=0;entryPerimeter=0;" parent="1" source="YwI35glb4WTkXIQjEgCE-111" target="YwI35glb4WTkXIQjEgCE-128" edge="1">
          <mxGeometry width="50" height="50" relative="1" as="geometry">
            <mxPoint x="1150" y="410" as="sourcePoint" />
            <mxPoint x="1200" y="360" as="targetPoint" />
            <Array as="points">
              <mxPoint x="1110" y="360" />
              <mxPoint x="1110" y="520" />
            </Array>
          </mxGeometry>
        </mxCell>
        <mxCell id="YwI35glb4WTkXIQjEgCE-148" value="" style="endArrow=none;html=1;rounded=0;" parent="1" edge="1">
          <mxGeometry width="50" height="50" relative="1" as="geometry">
            <mxPoint x="1080" y="370" as="sourcePoint" />
            <mxPoint x="1080" y="350" as="targetPoint" />
          </mxGeometry>
        </mxCell>
        <mxCell id="YwI35glb4WTkXIQjEgCE-159" value="momentos" style="swimlane;fontStyle=0;childLayout=stackLayout;horizontal=1;startSize=30;horizontalStack=0;resizeParent=1;resizeParentMax=0;resizeLast=0;collapsible=1;marginBottom=0;whiteSpace=wrap;html=1;" parent="1" vertex="1">
          <mxGeometry x="1380" y="320" width="140" height="120" as="geometry" />
        </mxCell>
        <mxCell id="YwI35glb4WTkXIQjEgCE-160" value="PKI&lt;u style=&quot;text-align: center;&quot;&gt;dMomento&lt;/u&gt;" style="text;strokeColor=none;fillColor=none;align=left;verticalAlign=middle;spacingLeft=4;spacingRight=4;overflow=hidden;points=[[0,0.5],[1,0.5]];portConstraint=eastwest;rotatable=0;whiteSpace=wrap;html=1;dashed=1;dashPattern=1 4;" parent="YwI35glb4WTkXIQjEgCE-159" vertex="1">
          <mxGeometry y="30" width="140" height="30" as="geometry" />
        </mxCell>
        <mxCell id="YwI35glb4WTkXIQjEgCE-161" value="&lt;span style=&quot;text-align: center;&quot;&gt;contenido&lt;/span&gt;" style="text;strokeColor=none;fillColor=none;align=left;verticalAlign=middle;spacingLeft=4;spacingRight=4;overflow=hidden;points=[[0,0.5],[1,0.5]];portConstraint=eastwest;rotatable=0;whiteSpace=wrap;html=1;" parent="YwI35glb4WTkXIQjEgCE-159" vertex="1">
          <mxGeometry y="60" width="140" height="30" as="geometry" />
        </mxCell>
        <mxCell id="YwI35glb4WTkXIQjEgCE-162" value="&lt;span style=&quot;text-align: center;&quot;&gt;cantidad&lt;/span&gt;" style="text;strokeColor=none;fillColor=none;align=left;verticalAlign=middle;spacingLeft=4;spacingRight=4;overflow=hidden;points=[[0,0.5],[1,0.5]];portConstraint=eastwest;rotatable=0;whiteSpace=wrap;html=1;" parent="YwI35glb4WTkXIQjEgCE-159" vertex="1">
          <mxGeometry y="90" width="140" height="30" as="geometry" />
        </mxCell>
        <mxCell id="YwI35glb4WTkXIQjEgCE-163" value="" style="endArrow=none;html=1;rounded=0;exitX=1.001;exitY=0.656;exitDx=0;exitDy=0;exitPerimeter=0;entryX=-0.001;entryY=0.336;entryDx=0;entryDy=0;entryPerimeter=0;" parent="1" source="YwI35glb4WTkXIQjEgCE-129" target="YwI35glb4WTkXIQjEgCE-160" edge="1">
          <mxGeometry width="50" height="50" relative="1" as="geometry">
            <mxPoint x="1330" y="418" as="sourcePoint" />
            <mxPoint x="1380" y="367.5" as="targetPoint" />
            <Array as="points">
              <mxPoint x="1340" y="550" />
              <mxPoint x="1340" y="360" />
            </Array>
          </mxGeometry>
        </mxCell>
        <mxCell id="YwI35glb4WTkXIQjEgCE-164" value="" style="endArrow=none;html=1;rounded=0;" parent="1" edge="1">
          <mxGeometry width="50" height="50" relative="1" as="geometry">
            <mxPoint x="1370" y="370" as="sourcePoint" />
            <mxPoint x="1370" y="350" as="targetPoint" />
          </mxGeometry>
        </mxCell>
      </root>
    </mxGraphModel>
  </diagram>
</mxfile>
